<?xml version="1.0" standalone="no"?>
<!DOCTYPE svg PUBLIC "-//W3C//DTD SVG 20010904//EN"
 "http://www.w3.org/TR/2001/REC-SVG-20010904/DTD/svg10.dtd">
<svg version="1.0" xmlns="http://www.w3.org/2000/svg"
 width="512.000000pt" height="512.000000pt" viewBox="0 0 512.000000 512.000000"
 preserveAspectRatio="xMidYMid meet">
<metadata>
Created by potrace 1.14, written by Peter Selinger 2001-2017
</metadata>
<g transform="translate(0.000000,512.000000) scale(0.100000,-0.100000)"
fill="#000000" stroke="none">
<path d="M393 5106 c-186 -45 -345 -207 -382 -388 -8 -38 -11 -677 -9 -2183
l3 -2130 22 -60 c67 -175 220 -306 393 -335 46 -8 684 -10 2180 -8 l2115 3 68
27 c86 35 141 73 205 143 60 66 106 156 122 240 8 44 10 633 8 2180 l-3 2120
-23 59 c-64 169 -213 300 -380 335 -82 17 -4248 14 -4319 -3z m2672 -1016
c338 -28 578 -129 756 -317 84 -89 130 -166 171 -284 31 -91 32 -99 33 -259 0
-148 -2 -172 -23 -230 -34 -93 -100 -195 -181 -276 l-71 -71 58 -38 c217 -143
324 -324 347 -585 8 -90 -8 -252 -36 -350 -86 -311 -350 -532 -752 -628 l-112
-27 -1082 0 c-1077 0 -1082 0 -1109 21 -15 11 -42 37 -58 58 l-31 38 -3 1386
c-1 763 0 1401 3 1419 9 52 81 122 140 138 40 11 229 14 940 14 499 0 943 -4
1010 -9z"/>
<path d="M1780 3205 l0 -305 598 0 c661 0 661 0 744 63 65 50 92 112 96 224 5
121 -14 180 -77 243 -82 82 -60 80 -753 80 l-608 0 0 -305z"/>
<path d="M1780 1960 l0 -370 603 0 c331 0 635 5 674 10 168 22 257 114 284
294 29 197 -48 360 -198 416 -52 19 -77 20 -708 20 l-655 0 0 -370z"/>
</g>
</svg>
